<svg width="20" height="9" viewBox="0 0 20 9" fill="none" xmlns="http://www.w3.org/2000/svg">
<g clip-path="url(#clip0_156_1170)">
<path d="M18.9036 8.22552H1.0954C0.804754 8.22552 0.52601 8.10922 0.320491 7.90221C0.114971 7.6952 -0.000488281 7.41443 -0.000488281 7.12167C-0.000488281 6.82891 0.114971 6.54814 0.320491 6.34113C0.52601 6.13412 0.804754 6.01782 1.0954 6.01782H18.9036C19.1943 6.01782 19.473 6.13412 19.6785 6.34113C19.8841 6.54814 19.9995 6.82891 19.9995 7.12167C19.9995 7.41443 19.8841 7.6952 19.6785 7.90221C19.473 8.10922 19.1943 8.22552 18.9036 8.22552Z" fill="#FFA800"/>
<path d="M18.9036 2.98223H1.0954C0.804754 2.98223 0.52601 2.86594 0.320491 2.65892C0.114971 2.45191 -0.000488281 2.17114 -0.000488281 1.87839C-0.000488281 1.58563 0.114971 1.30486 0.320491 1.09785C0.52601 0.890834 0.804754 0.774536 1.0954 0.774536L18.9036 0.774536C19.1943 0.774536 19.473 0.890834 19.6785 1.09785C19.8841 1.30486 19.9995 1.58563 19.9995 1.87839C19.9995 2.17114 19.8841 2.45191 19.6785 2.65892C19.473 2.86594 19.1943 2.98223 18.9036 2.98223Z" fill="#FFA800"/>
</g>
<defs>
<clipPath id="clip0_156_1170">
<rect width="20" height="7.45098" fill="white" transform="translate(-0.000488281 0.774536)"/>
</clipPath>
</defs>
</svg>
